<svg xmlns="http://www.w3.org/2000/svg" width="16.008" height="16" viewBox="0 0 16.008 16">
    <g fill="#666666" id="clock" transform="translate(-39 -142.168)">
        <g id="Group_196" class="cls-1" data-name="Group 196" transform="translate(39 142.168)">
            <path id="Path_190" d="M15.37 5.052A7.843 7.843 0 0 0 11.107.807 7.868 7.868 0 0 0 7.991.168a7.786 7.786 0 0 0-3.107.639A7.868 7.868 0 0 0 .63 5.052a8 8 0 0 0 0 6.223 7.885 7.885 0 0 0 4.254 4.254 7.787 7.787 0 0 0 3.107.639 7.87 7.87 0 0 0 3.116-.639 7.86 7.86 0 0 0 4.263-4.254 7.9 7.9 0 0 0 0-6.223zM14.092 11.7a7.023 7.023 0 0 1-2.573 2.565 6.894 6.894 0 0 1-3.527.945 6.778 6.778 0 0 1-2.731-.56 7.157 7.157 0 0 1-2.241-1.5 7.114 7.114 0 0 1-1.5-2.25 6.891 6.891 0 0 1-.551-2.74 6.881 6.881 0 0 1 .937-3.519 7.026 7.026 0 0 1 2.567-2.565 6.841 6.841 0 0 1 3.518-.945 6.894 6.894 0 0 1 3.527.945 7.044 7.044 0 0 1 2.573 2.565 6.841 6.841 0 0 1 .945 3.519 6.907 6.907 0 0 1-.944 3.54z" class="cls-2" data-name="Path 190" transform="translate(0 -.168)"/>
            <path id="Path_191" d="M288.082 115.945v-4.534a.5.5 0 0 0-.508-.49.493.493 0 0 0-.481.49v4.6a.4.4 0 0 1 .018.07.458.458 0 0 0 .131.394l2.617 2.617a.5.5 0 0 0 .674 0 .472.472 0 0 0 0-.683z" class="cls-2" data-name="Path 191" transform="translate(-279.583 -108.024)"/>
        </g>
    </g>
</svg>
