<svg xmlns="http://www.w3.org/2000/svg" width="91.182" height="77.214" viewBox="0 0 91.182 77.214">
  <g id="Group_196" data-name="Group 196" transform="translate(-1515.538 -1495.702)">
    <path id="Path_173" data-name="Path 173" d="M58.529,64.713a20.7,20.7,0,0,0-7.791-8.041,38.242,38.242,0,0,0-11.157-4.3A63.654,63.654,0,0,0,25.8,51a27.576,27.576,0,0,0-10.783,2.119,25.927,25.927,0,0,0-8.228,5.236,28.327,28.327,0,0,0-4.986,6.358A12.117,12.117,0,0,0,0,70.447a12.781,12.781,0,0,0,2.493,8.228,8.713,8.713,0,0,0,7.23,3.117q4.987,0,7.293,1.434t2.306,5.049A11.077,11.077,0,0,0,30.667,99.618q14.835,0,22.751-6.732T61.333,76.93A25.035,25.035,0,0,0,58.529,64.713ZM13.4,74.125a3.905,3.905,0,0,1-2.867,1.184,4.052,4.052,0,1,1,0-8.1A4.055,4.055,0,0,1,13.4,74.125Zm8.352-8.539a3.7,3.7,0,0,1-2.8-1.184,4.225,4.225,0,0,1,0-5.734,3.7,3.7,0,0,1,2.8-1.184,4.052,4.052,0,1,1,0,8.1ZM34.095,91.7a4.816,4.816,0,1,1,1.434-3.428A4.678,4.678,0,0,1,34.095,91.7Zm3.491-27.3a4.063,4.063,0,1,1,1.184-2.867A3.905,3.905,0,0,1,37.585,64.4Zm12.84,6.482a4.063,4.063,0,1,1,1.184-2.867A3.905,3.905,0,0,1,50.426,70.884Z" transform="matrix(0.485, -0.875, 0.875, 0.485, 1470.932, 1524.62)" fill="#f23a4e"/>
    <path id="Path_174" data-name="Path 174" d="M22.988,16.727a19.769,19.769,0,0,0,1.848-2.864,8.1,8.1,0,0,1-2.6-3.114,23.821,23.821,0,0,0-3.252,1.8C13.342,17.3-.463,34.318.012,34.811.51,35.333,18.024,22.172,22.988,16.727Zm3.475-4.186c2.448.433,4.865-1.115,6.479-4.984S37.441,2.141,38,2.235C34.99,1.146,25.811-1.639,23.53,8.964A7.047,7.047,0,0,0,26.463,12.542Z" transform="matrix(0.966, -0.259, 0.259, 0.966, 1561.001, 1531.45)" fill="#f6796a"/>
  </g>
</svg>
