<svg xmlns="http://www.w3.org/2000/svg" width="70.517" height="69.702" viewBox="0 0 70.517 69.702">
  <g id="technical-support_icon-icons.com_52812" transform="translate(-254.152 -257.052)">
    <g id="icon_27_" transform="translate(254.153 257.052)">
      <g id="Group_34" data-name="Group 34" transform="translate(0.827 0)">
        <g id="Group_33" data-name="Group 33">
          <path id="Path_10" data-name="Path 10" d="M268.312,297.5l-7.329-.868a1.1,1.1,0,0,1-.949-1.067v-7.341a1.1,1.1,0,0,1,.949-1.062l7.329-.87a26.861,26.861,0,0,1,3.829-9.209l-4.579-5.809a1.094,1.094,0,0,1,.079-1.419l5.194-5.2a1.1,1.1,0,0,1,1.428-.079l5.8,4.569a27.139,27.139,0,0,1,9.212-3.817L290.14,258a1.1,1.1,0,0,1,1.067-.943h7.343a1.1,1.1,0,0,1,1.067.943l.868,7.337a27.129,27.129,0,0,1,9.208,3.817l5.8-4.569a1.1,1.1,0,0,1,1.424.079l5.189,5.2a1.092,1.092,0,0,1,.086,1.424l-4.573,5.8a26.962,26.962,0,0,1,3.821,9.209l7.329.87a1.1,1.1,0,0,1,.953,1.062l0,7.341a1.091,1.091,0,0,1-.949,1.067l-7.329.868a26.972,26.972,0,0,1-3.823,9.214l4.574,5.805a1.087,1.087,0,0,1-.086,1.42l-5.189,5.192a1.1,1.1,0,0,1-1.426.081l-5.8-4.573a27,27,0,0,1-9.208,3.819l-.868,7.327a1.107,1.107,0,0,1-1.067.954l-7.343,0a1.091,1.091,0,0,1-1.067-.95l-.864-7.327a26.339,26.339,0,0,1-5.92-2.016l5.991-5.807a19.634,19.634,0,1,0-13.256-13.411l-5.934,5.755A26.466,26.466,0,0,1,268.312,297.5Z" transform="translate(-260.034 -257.052)" fill="#f6796a"/>
        </g>
      </g>
      <path id="Path_11" data-name="Path 11" d="M255.859,453.573a6.075,6.075,0,0,0,8.545.215l.063.067L284.7,434.243a14.531,14.531,0,0,0,18.635-17.817l-4.811,4.628a2.8,2.8,0,0,1-3.952-.081l-4.65-4.836a2.8,2.8,0,0,1,.081-3.958l4.805-4.616a14.527,14.527,0,0,0-18.581,17.76l-20.274,19.659,0,0A6.136,6.136,0,0,0,255.859,453.573Zm2-4.2a1.993,1.993,0,0,1,2.816.048,2.017,2.017,0,0,1-.053,2.835,1.986,1.986,0,0,1-2.813-.05A2.011,2.011,0,0,1,257.864,449.374Z" transform="translate(-254.153 -385.738)" fill="#f23a4e"/>
    </g>
  </g>
</svg>
