<svg xmlns="http://www.w3.org/2000/svg" width="76.745" height="64.746" viewBox="0 0 76.745 64.746">
  <g id="_3a84a4b199dfe05381ae0912d36f5d76" data-name="3a84a4b199dfe05381ae0912d36f5d76" transform="translate(-9.996 -86.619)">
    <g id="Group_35" data-name="Group 35" transform="translate(9.996 86.619)">
      <path id="Path_12" data-name="Path 12" d="M77.767-424.146a7.258,7.258,0,0,0-5.2,8.6,2.012,2.012,0,0,1,.12.915c-.3.255-8.874,6.131-9.054,6.206-.135.06-.54-.12-.93-.375a7.213,7.213,0,0,0-3.463-1.154,6.932,6.932,0,0,0-5.606,2.174l-.959.944-3.688-1.259L45.3-409.349l-.18-1.244a7.121,7.121,0,0,0-3.538-5.606,8.2,8.2,0,0,0-3.613-.989,7.278,7.278,0,0,0-6.836,5.082,8.019,8.019,0,0,0-.09,3.943l.195.674L26.6-404.252l-4.633,3.222-.735-.495A7.191,7.191,0,0,0,10.218-397.3a7.209,7.209,0,0,0,8.665,8.665,7.225,7.225,0,0,0,5.292-8.59l-.195-.795.464-.345c1.079-.795,8.575-5.981,8.74-6.042.1-.045.495.15.869.4a7.091,7.091,0,0,0,9.039-1.02l.959-.959,3.688,1.274,3.7,1.259.165,1.259a7.015,7.015,0,0,0,2.338,4.707,7.2,7.2,0,0,0,11.693-3.268c.3-1,.315-1.679.09-4.212-.045-.42.195-.6,4.527-3.613l4.558-3.163.72.48A7.188,7.188,0,0,0,86.521-415.5,7.224,7.224,0,0,0,77.767-424.146Zm2.893,3.537a3.972,3.972,0,0,1,2.489,3.418,3.775,3.775,0,0,1-3.6,3.6,3.277,3.277,0,0,1-2.473-1.125,3.24,3.24,0,0,1,0-4.947A3.309,3.309,0,0,1,80.66-420.608Zm-40.955,7.5a3.8,3.8,0,0,1,1.769,2.414,3.63,3.63,0,0,1-1.843,3.883,3.363,3.363,0,0,1-1.694.345,2.658,2.658,0,0,1-1.8-.449,3.617,3.617,0,0,1,.645-6.461A3.979,3.979,0,0,1,39.705-413.112Zm20.927,7.27a3.854,3.854,0,0,1,1.154,1.154,2.7,2.7,0,0,1,.45,1.889,2.7,2.7,0,0,1-.45,1.889,3.447,3.447,0,0,1-2.8,1.664,2.511,2.511,0,0,1-1.769-.36,3.565,3.565,0,0,1,.6-6.656A4.006,4.006,0,0,1,60.632-405.842ZM18.3-399.021a4.45,4.45,0,0,1,2.309,2.309,3.284,3.284,0,0,1-.944,3.583,3.242,3.242,0,0,1-4.948,0,3.24,3.24,0,0,1,0-4.947A3.309,3.309,0,0,1,18.3-399.021Z" transform="translate(-9.996 424.382)" fill="#f23a4e"/>
      <path id="Path_13" data-name="Path 13" d="M808-148.16a2.6,2.6,0,0,0-1.349,1.634c-.045.27-.06,9.325-.045,20.148.045,19.593.045,19.668.359,20.073a4.12,4.12,0,0,0,.72.72c.4.3.584.315,6.086.315s5.681-.015,6.086-.315a4.121,4.121,0,0,0,.72-.72c.315-.4.315-.45.315-20.478s0-20.073-.315-20.478a4.12,4.12,0,0,0-.72-.72c-.39-.3-.615-.315-5.906-.345C809.608-148.355,808.364-148.326,808-148.16Z" transform="translate(-744.221 169.953)" fill="#f6796a"/>
      <path id="Path_14" data-name="Path 14" d="M277.535-56.587a2.744,2.744,0,0,0-.72.48c-.825.764-.78-.135-.78,17.389v16.25l.345.495a3.915,3.915,0,0,0,.749.81c.4.3.615.315,5.876.359,5.217.045,5.487.03,6.057-.255a2.72,2.72,0,0,0,.93-.869l.359-.569V-55.027l-.359-.569a2.547,2.547,0,0,0-.93-.854c-.54-.285-.884-.3-5.862-.285A54.168,54.168,0,0,0,277.535-56.587Z" transform="translate(-255.201 85.53)" fill="#f6796a"/>
      <path id="Path_15" data-name="Path 15" d="M542.394,35.518a2.933,2.933,0,0,0-.9.869c-.315.525-.315.674-.315,13.192s0,12.667.315,13.192a2.933,2.933,0,0,0,.9.869c.584.33.615.33,6.086.3,5.306-.045,5.516-.06,5.921-.359a4.423,4.423,0,0,0,.764-.81l.33-.495V36.881l-.33-.495a4.423,4.423,0,0,0-.764-.81c-.4-.3-.615-.315-5.921-.359C543.008,35.189,542.978,35.189,542.394,35.518Z" transform="translate(-499.582 0.785)" fill="#f6796a"/>
      <path id="Path_16" data-name="Path 16" d="M11.6,127.49a2.594,2.594,0,0,0-1.349,1.634c-.045.27-.075,4.467-.045,9.354.045,8.695.045,8.874.359,9.279a4.118,4.118,0,0,0,.72.72c.4.3.585.315,6.086.315s5.681-.015,6.086-.315a4.118,4.118,0,0,0,.72-.72c.315-.4.315-.554.315-9.684s0-9.279-.315-9.684a4.118,4.118,0,0,0-.72-.72c-.39-.3-.615-.315-5.906-.345C13.2,127.295,11.958,127.324,11.6,127.49Z" transform="translate(-10.177 -84.11)" fill="#f6796a"/>
    </g>
  </g>
</svg>
