<svg xmlns="http://www.w3.org/2000/svg" width="72.357" height="72.302" viewBox="0 0 72.357 72.302">
  <g id="Group_80" data-name="Group 80" transform="translate(-0.004 -0.006)">
    <path id="Path_75" data-name="Path 75" d="M38.242,132.046a3.036,3.036,0,0,0,3.795-3.139c-.07-1.637-1.152-2.645-3.1-2.962-2.9-.47-5.792-.95-8.677-1.479a1.927,1.927,0,0,1-1.1-.7c-2.079-2.818-4.119-5.666-6.165-8.511a8.712,8.712,0,0,0-14.15-.241c-2.641,3.872-5.467,7.617-8.189,11.432a3.3,3.3,0,0,0,.825,4.72c2.969,2.136,5.934,4.279,8.92,6.392a.863.863,0,0,1,.416.951c-.336,2.707-.645,5.419-.959,8.129q-.613,5.3-1.213,10.592c-.232,2.073-.514,4.143-.627,6.223a3.05,3.05,0,0,0,3.813,3.02c1.552-.368,2.276-1.234,2.492-3.111q1.023-8.908,2.013-17.821c.121-1.075.226-2.153.394-3.221.034-.213.322-.388.492-.582a4.063,4.063,0,0,1,.538.622c.08.138.029.353.031.534q.058,5.527.113,11.056c.032,3.17.046,6.339.107,9.509a3.032,3.032,0,0,0,3.911,2.975,2.992,2.992,0,0,0,2.361-3.332c-.06-5.592-.158-11.184-.173-16.776a140.239,140.239,0,0,0-.825-17.285c-.13-1.032-.22-2.07-.328-3.1l.135-.051c.124.15.257.292.37.45.6.835,1.208,1.669,1.8,2.514a3.033,3.033,0,0,0,2.087,1.33c.84.133,1.677.28,2.515.424C32.654,131.09,35.445,131.588,38.242,132.046ZM7.234,127.773l2.607-3.64c.278,2.087.529,3.96.814,6.087C9.41,129.332,8.357,128.579,7.234,127.773Z" transform="translate(0 -94.252)" fill="#f23a4e"/>
    <path id="Path_76" data-name="Path 76" d="M221.8,6.847c-.563-.048-1.134-.022-1.7-.022-4.2,0-8.4.011-12.607-.009a1.04,1.04,0,0,1-.8-.345c-.552-1.142-.922-1.374-2.215-1.3-.676.04-1.355.008-2.112.008,0-1.264.012-2.341,0-3.417A1.637,1.637,0,0,0,200.9.007a1.768,1.768,0,0,0-1.6,1.768c-.014.825-.056,1.654.011,2.474.063.778-.257,1-.97.942-.512-.045-1.03-.028-1.545-.029a1.482,1.482,0,0,0-1.581.992c-.187.606-.524.69-1.075.687q-6.882-.03-13.766-.012c-1.42,0-1.966.548-1.969,1.966-.009,3.79.05,7.58-.034,11.368a5.026,5.026,0,0,0,1.279,3.948,12.033,12.033,0,0,1,.99,1.378c.258.353.535.693.8,1.038l.144-.08V10.025c1.9,0,3.7-.006,5.495,0,1.746.009,3.493.051,5.241.046,2.289,0,4.577-.06,6.867-.059,3.007,0,6.013.054,9.02.065q5.564.019,11.129-.009c.659,0,.916.176.889.871-.051,1.415-.028,2.836-.028,4.253,0,8.688-.011,17.375.025,26.063,0,.818-.244.971-.995.97-8.971-.022-17.943-.011-26.913-.014-3.326,0-6.65-.032-9.976-.006-.718.006-.9-.241-.8-.906a5.471,5.471,0,0,0,.023-1.312c-.017-.183-.183-.475-.323-.5-.919-.175-1.85-.291-2.832-.433,0,1.569-.014,3.035,0,4.5a1.632,1.632,0,0,0,1.867,1.839c1.675.009,3.352.019,5.028-.008.456-.008.712.1.812.575a1.542,1.542,0,0,0,1.556,1.25c.17.015.337.056.574.1-.286,1.173-.551,2.294-.835,3.409q-1.327,5.2-2.665,10.4c-.76,2.964-1.5,5.932-2.289,8.889a1.712,1.712,0,0,0,1.066,2.153,1.506,1.506,0,0,0,1.934-1.146c.322-1.086.6-2.183.883-3.281q2.471-9.722,4.933-19.445c.288-1.132.3-1.118,1.439-1.114,2.187.009,4.373,0,6.585,0V60.959c0,3.2-.006,6.393,0,9.591a1.548,1.548,0,1,0,3.085.1c0-3.273-.017-6.547-.019-9.82,0-4.551,0-9.1,0-13.619,2.381,0,4.645.019,6.91-.011.631-.008.967.131,1.114.823.328,1.535.758,3.047,1.149,4.568q2.286,8.917,4.574,17.838h.755l-.647.506c.48,1.072,1.166,1.488,1.96,1.224a1.6,1.6,0,0,0,1.086-2.146q-1.543-6.133-3.108-12.263c-.828-3.232-1.675-6.457-2.514-9.684-.114-.444-.268-.845.492-.863,1.615-.042,1.842-.243,2.382-1.779.113-.008.24-.026.365-.026,1.547,0,3.094.011,4.641-.006,1.075-.011,1.609-.48,1.609-1.323q0-17.867,0-35.732C223.136,7.367,222.781,6.929,221.8,6.847Z" transform="translate(-150.773)" fill="#f6796a"/>
    <path id="Path_77" data-name="Path 77" d="M64.232,20.974a7.652,7.652,0,1,0-7.7-7.691A7.646,7.646,0,0,0,64.232,20.974Z" transform="translate(-47.781 -4.788)" fill="#f23a4e"/>
    <path id="Path_78" data-name="Path 78" d="M244.7,108.4c-.518.691-.514,1.323.009,1.7s1.139.192,1.634-.472q1.592-2.132,3.2-4.251a.8.8,0,0,1,.48-.3c1.394-.159,1.4-.152,2.475.831.362.329.7.687,1.084.984.166.128.3.326.514.387.155.155.206.249.336.379.78.784,1.567,1.564,2.393,2.3a1.331,1.331,0,0,1,.582,1.306,2.373,2.373,0,0,0,1.445,2.574,2.558,2.558,0,0,0,3.51-3.109,1.248,1.248,0,0,1,.255-1.255q2.6-3.592,5.173-7.2a1.089,1.089,0,0,1,.982-.552,2.568,2.568,0,1,0-.662-5.046,2.552,2.552,0,0,0-1.774,3.383,1.182,1.182,0,0,1-.145.883c-1.751,2.509-3.53,5-5.307,7.489a1.84,1.84,0,0,1-2.486.227q-1.766-1.608-3.529-3.219l.012-.022h0l-.015,0-.028-.006c-.538-.531-1.1-1.038-1.6-1.6a1.287,1.287,0,0,1-.308-.854,2.732,2.732,0,0,0-1.282-2.695,2.617,2.617,0,0,0-3.71,3.136,1.167,1.167,0,0,1-.158.871C246.779,105.658,245.732,107.024,244.7,108.4Z" transform="translate(-206.519 -81.651)" fill="#f23a4e"/>
  </g>
</svg>
