<svg xmlns="http://www.w3.org/2000/svg" width="268" height="268" viewBox="0 0 268 268">
  <g id="Group_201" data-name="Group 201" transform="translate(-556 -4051.644)">
    <g id="Ellipse_10" data-name="Ellipse 10" transform="translate(616 4113.735)" fill="#fff" stroke="#fff" stroke-width="2">
      <circle cx="74" cy="74" r="74" stroke="none"/>
      <circle cx="74" cy="74" r="73" fill="none"/>
    </g>
    <path id="Path_98" data-name="Path 98" d="M513,4239v54l40-24Z" transform="translate(158 -77.442)" fill="#ef4140"/>
    <g id="Ellipse_11" data-name="Ellipse 11" transform="translate(586 4082.917)" fill="none" stroke="#fff" stroke-width="2">
      <circle cx="104" cy="104" r="104" stroke="none"/>
      <circle cx="104" cy="104" r="103" fill="none"/>
    </g>
    <g id="Path_99" data-name="Path 99" transform="translate(556 4051.644)" fill="none">
      <path d="M134,0A134,134,0,1,1,0,134,134,134,0,0,1,134,0Z" stroke="none"/>
      <path d="M 134 2 C 125.0426483154297 2 116.0915374755859 2.90228271484375 107.3952789306641 4.681793212890625 C 98.92103576660156 6.4158935546875 90.58549499511719 9.00335693359375 82.62025451660156 12.37239074707031 C 74.79914855957031 15.68043518066406 67.2554931640625 19.77499389648438 60.19892883300781 24.54232788085938 C 53.2088623046875 29.26470947265625 46.63568115234375 34.68814086914062 40.66189575195312 40.66189575195312 C 34.68814086914062 46.63568115234375 29.26470947265625 53.2088623046875 24.54232788085938 60.19892883300781 C 19.77499389648438 67.2554931640625 15.68043518066406 74.79914855957031 12.37239074707031 82.62025451660156 C 9.00335693359375 90.58549499511719 6.4158935546875 98.92103576660156 4.681793212890625 107.3952789306641 C 2.90228271484375 116.0915374755859 2 125.0426483154297 2 134 C 2 142.9573669433594 2.90228271484375 151.9084625244141 4.681793212890625 160.6047058105469 C 6.4158935546875 169.0789642333984 9.00335693359375 177.4144897460938 12.37239074707031 185.3797607421875 C 15.68043518066406 193.2008666992188 19.77499389648438 200.7445068359375 24.54232788085938 207.8010711669922 C 29.26470947265625 214.7911376953125 34.68814086914062 221.3643188476562 40.66189575195312 227.3381042480469 C 46.63568115234375 233.3118591308594 53.2088623046875 238.7352905273438 60.19892883300781 243.4576721191406 C 67.2554931640625 248.2250061035156 74.79914855957031 252.3195648193359 82.62025451660156 255.6276092529297 C 90.58549499511719 258.9966430664062 98.92103576660156 261.5841064453125 107.3952789306641 263.3182067871094 C 116.0915374755859 265.0977172851562 125.0426483154297 266 134 266 C 142.9573669433594 266 151.9084625244141 265.0977172851562 160.6047058105469 263.3182067871094 C 169.0789642333984 261.5841064453125 177.4144897460938 258.9966430664062 185.3797607421875 255.6276092529297 C 193.2008666992188 252.3195648193359 200.7445068359375 248.2250061035156 207.8010711669922 243.4576721191406 C 214.7911376953125 238.7352905273438 221.3643188476562 233.3118591308594 227.3381042480469 227.3381042480469 C 233.3118591308594 221.3643188476562 238.7352905273438 214.7911376953125 243.4576721191406 207.8010711669922 C 248.2250061035156 200.7445068359375 252.3195648193359 193.2008666992188 255.6276092529297 185.3797607421875 C 258.9966430664062 177.4144897460938 261.5841064453125 169.0789642333984 263.3182067871094 160.6047058105469 C 265.0977172851562 151.9084625244141 266 142.9573669433594 266 134 C 266 125.0426483154297 265.0977172851562 116.0915374755859 263.3182067871094 107.3952789306641 C 261.5841064453125 98.92103576660156 258.9966430664062 90.58549499511719 255.6276092529297 82.62025451660156 C 252.3195648193359 74.79914855957031 248.2250061035156 67.2554931640625 243.4576721191406 60.19892883300781 C 238.7352905273438 53.2088623046875 233.3118591308594 46.63568115234375 227.3381042480469 40.66189575195312 C 221.3643188476562 34.68814086914062 214.7911376953125 29.26470947265625 207.8010711669922 24.54232788085938 C 200.7445068359375 19.77499389648438 193.2008666992188 15.68043518066406 185.3797607421875 12.37239074707031 C 177.4144897460938 9.00335693359375 169.0789642333984 6.4158935546875 160.6047058105469 4.681793212890625 C 151.9084625244141 2.90228271484375 142.9573669433594 2 134 2 M 134 0 C 208.0061798095703 0 268 59.99382019042969 268 134 C 268 208.0061798095703 208.0061798095703 268 134 268 C 59.99382019042969 268 0 208.0061798095703 0 134 C 0 59.99382019042969 59.99382019042969 0 134 0 Z" stroke="none" fill="#fff"/>
    </g>
  </g>
</svg>
