<svg xmlns="http://www.w3.org/2000/svg" width="16" height="10.198" viewBox="0 0 16 10.198">
    <g fill="#666666" id="view" class="cls-1" transform="translate(0 -92.835)">
        <g id="Group_198" data-name="Group 198" transform="translate(0 92.835)">
            <g id="Group_197" data-name="Group 197">
                <path id="Path_192" d="M15.9 97.623c-.143-.2-3.549-4.788-7.9-4.788S.244 97.427.1 97.623a.528.528 0 0 0 0 .623c.143.2 3.549 4.788 7.9 4.788s7.755-4.592 7.9-4.788a.527.527 0 0 0 0-.623zM8 101.978c-3.2 0-5.979-3.048-6.8-4.044.82-1 3.59-4.044 6.8-4.044s5.979 3.047 6.8 4.044c-.82.998-3.589 4.044-6.8 4.044z" class="cls-2" data-name="Path 192" transform="translate(0 -92.835)"/>
            </g>
        </g>
        <g id="Group_200" data-name="Group 200" transform="translate(4.835 94.769)">
            <g id="Group_199" data-name="Group 199">
                <path id="Path_193" d="M157.887 154.725a3.165 3.165 0 1 0 3.165 3.165 3.168 3.168 0 0 0-3.165-3.165zm0 5.275a2.11 2.11 0 1 1 2.11-2.11 2.112 2.112 0 0 1-2.11 2.11z" class="cls-2" data-name="Path 193" transform="translate(-154.722 -154.725)"/>
            </g>
        </g>
    </g>
</svg>
